<svg id="Calque_1" data-name="Calque 1" xmlns="http://www.w3.org/2000/svg" xmlns:xlink="http://www.w3.org/1999/xlink" viewBox="0 0 757.751 768.445"><defs><style>.cls-1{opacity:0.07;}.cls-2{fill:none;stroke:#000;stroke-miterlimit:10;}</style></defs><title>Sans titre - 1</title><image class="cls-1" width="223" height="226" transform="scale(3.398)" xlink:href="index.jpg"/><polyline class="cls-2" points="7.022 229.67 7.022 252.747 19.11 287.912 32.297 323.505 53.176 357.143 79.549 379.121 109.22 397.802 163.066 417.582 205.923 417.582 246.582 417.582 288.341 396.703 308.121 383.973 266.363 417.582 250.978 435.165 242.187 453.846 265.264 437.363 285.044 421.978 267.462 453.846 257.571 489.011 290.538 435.165 282.846 467.033 286.143 500 296.033 471.429 296.956 464.661 299.33 447.253 308.121 493.407 333.396 518.681 378.876 552.747 399.33 602.198 399.33 678.022 399.33 737.363 393.835 767.945 422.407 767.945 442.132 728.571 460.868 685.714 490.538 653.846 520.209 624.176 564.165 614.286 590.538 627.473 596.033 661.538 591.637 707.692 591.637 746.154 591.637 767.945 601.527 672.527 601.527 626.374 632.297 630.769 671.857 617.582 685.044 573.626 694.934 527.473 715.813 512.088 731.198 486.813 731.198 460.44 700.429 423.077 697.132 395.604 703.725 351.648 697.132 303.297 688.341 261.538 670.758 221.978 633.396 187.912 579.549 169.231 523.505 164.835 469.659 175.824 509.22 141.758 569.659 127.473 602.626 116.484 553.176 105.495 496.033 117.582 459.769 124.176 425.703 138.462 471.857 105.495 503.725 79.121 515.813 60.44 465.264 83.516 434.495 112.088 390.538 163.736 396.033 124.176 418.011 73.626 369.11 138.462 354.275 191.209 350.978 125.275 336.692 174.725 335.593 225.275 318.011 200 318.011 251.648 247.681 230.769 163.066 215.385 196.033 249.451 234.495 289.011 285.044 323.505 319.11 335.165 287.242 369.231 227.901 395.604 164.165 400 115.813 383.973 69.659 353.846 41.088 306.593 37.791 252.747 66.363 226.374 96.033 223.077 89.44 206.593 21.308 220.879 105.923 204.396 155.374 210.989 104.824 212.088 136.692 236.264 170.758 257.143 209.22 283.516 233.396 310.989 263.066 323.505 213.615 323.505 271.857 338.462 223.505 343.956 260.868 356.044 201.527 371.429 138.89 376.923 182.846 390.11 246.582 378.022 325.703 323.505 378.876 291.209 411.418 262.637 458.67 260.44 503.725 306.593 524.604 341.758 542.187 383.973 560.868 434.066 554.275 469.231 522.407 486.813 470.758 487.912 423.505 481.319 378.876 458.242 355.374 426.374 350.978 368.132 364.165 323.505 378.876 298.901 374.055 348.352 387.242 370.33 413.615 359.341 446.582 353.846 469.659 361.538 489.44 378.022 508.121 414.192 523.505 446.154 535.593 453.846 507.022 458.242 459.769 459.341 425.703 451.648 401.527 425.275 390.538 396.703 383.945 375.824 422.407 368.132 419.11 392.308 419.11 414.192 442.132 437.363 467.462 437.363 492.736 408.791 469.659 372.527 442.132 368.132 431.198 376.923 442.132 400 456.473 401.099 459.769 383.973 442.132 374.725 430.099 391.209 425.703 348.352 389.44 358.242 385.044 301.099 414.714 271.429 524.604 282.418 586.143 273.626 618.011 241.758 641.088 215.385 680.648 263.736 690.538 303.297 694.934 358.242 688.341 408.791 665.264 427.473 647.681 431.868 650.978 396.703 654.275 356.044 660.868 328.571 677.352 307.692 680.648 323.505 668.56 341.758 665.264 383.973 677.352 395.604 687.242 354.945 682.846 332.967 639.989 423.077 623.505 383.973 612.516 310.989 613.615 264.835 655.374 189.011 631.198 126.374 633.396 83.516 671.857 16.484 702.626 8.791 731.198 47.253 742.187 94.505 749.879 147.253 733.396 183.516 692.736 206.593 668.56 206.593 667.462 173.626 650.978 125.275 643.286 80.22 666.363 59.341 696.033 45.055 723.505 65.934 749.879 179.121 721.308 237.363 743.286 235.165 704.824 287.912 704.824 442.857 657.571 456.044 631.198 471.429 654.275 486.813 690.538 481.319 719.11 461.538 699.33 451.648 608.121 480.22 577.352 498.901 541.088 506.593 508.121 531.868 523.505 530.769 533.396 559.341 537.791 583.516 574.055 608.791 627.901 623.077 661.967 612.088 683.945 549.451 689.44 513.187 660.868 532.967 618.011 531.868 587.242 529.67 553.176 516.484 578.451 546.154 602.626 586.813 630.099 597.802 661.967 576.923 674.055 539.56 652.077 574.725 622.407 568.132 609.22 573.626 578.451 567.033"/></svg>